HIERARCHY
ROOT Pelvis
{
	OFFSET 0.000000 0.000000 0.000000
	CHANNELS 6 Xposition Yposition Zposition Xrotation Yrotation Zrotation
	JOINT LeftUpLeg_virtual
	{
		OFFSET 0.000000 0.000000 0.000000
		CHANNELS 3 Xrotation Yrotation Zrotation
		JOINT LeftUpLeg
		{
			OFFSET 18.735201 -5.666702 -4.541200
			CHANNELS 3 Xrotation Yrotation Zrotation
			JOINT LeftLeg
			{
				OFFSET -0.021200 -31.938179 0.493100
				CHANNELS 3 Xrotation Yrotation Zrotation
				JOINT LeftFoot
				{
					OFFSET 0.021200 -31.938179 -4.336299
					CHANNELS 3 Xrotation Yrotation Zrotation
					JOINT LeftToeBase
					{
						OFFSET 0.943001 -26.722000 15.023500
						CHANNELS 3 Xrotation Yrotation Zrotation
						End Site
						{
							OFFSET 0 0 0
						}
					}
				}
			}
		}
	}
	JOINT RightUpLeg_virtual
	{
		OFFSET 0.000000 0.000000 0.000000
		CHANNELS 3 Xrotation Yrotation Zrotation
		JOINT RightUpLeg
		{
			OFFSET -18.735201 -5.666702 -4.541200
			CHANNELS 3 Xrotation Yrotation Zrotation
			JOINT RightLeg
			{
				OFFSET 0.018946 -31.938133 0.493100
				CHANNELS 3 Xrotation Yrotation Zrotation
				JOINT RightFoot
				{
					OFFSET -0.018946 -31.938126 -4.336299
					CHANNELS 3 Xrotation Yrotation Zrotation
					JOINT RightToeBase
					{
						OFFSET -0.943001 -26.722004 15.023500
						CHANNELS 3 Xrotation Yrotation Zrotation
						End Site
						{
							OFFSET 0 0 0
						}
					}
				}
			}
		}
	}
	JOINT Hips_virtual
	{
		OFFSET 0.000000 0.000000 0.000000
		CHANNELS 3 Xrotation Yrotation Zrotation
		JOINT Hips
		{
			OFFSET -0.000000 -0.000000 -0.000000
			CHANNELS 3 Xrotation Yrotation Zrotation
			JOINT Spine
			{
				OFFSET 0.000000 10.199997 -0.299500
				CHANNELS 3 Xrotation Yrotation Zrotation
				JOINT Spine1
				{
					OFFSET 0.000000 11.900002 -1.516600
					CHANNELS 3 Xrotation Yrotation Zrotation
					JOINT Spine2
					{
						OFFSET 0.000000 13.600006 -2.842500
						CHANNELS 3 Xrotation Yrotation Zrotation
						JOINT Neck_virtual
						{
							OFFSET 0.000000 0.000000 0.000000
							CHANNELS 3 Xrotation Yrotation Zrotation
							JOINT Neck
							{
								OFFSET 0.000000 9.624100 -2.890100
								CHANNELS 3 Xrotation Yrotation Zrotation
								JOINT Head
								{
									OFFSET 0.000000 14.068802 -1.351900
									CHANNELS 3 Xrotation Yrotation Zrotation
									End Site
									{
										OFFSET 0 0 0
									}
								}
							}
						}
						JOINT LeftShoulder_virtual
						{
							OFFSET 0.000000 0.000000 0.000000
							CHANNELS 3 Xrotation Yrotation Zrotation
							JOINT LeftShoulder
							{
								OFFSET 15.263000 10.923401 -0.547700
								CHANNELS 3 Xrotation Yrotation Zrotation
								JOINT LeftArm
								{
									OFFSET 25.438599 -2.830597 -13.032500
									CHANNELS 3 Xrotation Yrotation Zrotation
									JOINT LeftForeArm
									{
										OFFSET 29.960503 0.000000 0.000000
										CHANNELS 3 Xrotation Yrotation Zrotation
										JOINT LeftHand
										{
											OFFSET 27.849251 0.000000 0.000000
											CHANNELS 3 Xrotation Yrotation Zrotation
											End Site
											{
												OFFSET 0 0 0
											}
										}
									}
								}
							}
						}
						JOINT RightShoulder_virtual
						{
							OFFSET 0.000000 0.000000 0.000000
							CHANNELS 3 Xrotation Yrotation Zrotation
							JOINT RightShoulder
							{
								OFFSET -15.263000 10.923401 -0.547700
								CHANNELS 3 Xrotation Yrotation Zrotation
								JOINT RightArm
								{
									OFFSET -25.438599 -2.830597 -13.032500
									CHANNELS 3 Xrotation Yrotation Zrotation
									JOINT RightForeArm
									{
										OFFSET -29.960503 0.000000 0.000000
										CHANNELS 3 Xrotation Yrotation Zrotation
										JOINT RightHand
										{
											OFFSET -27.849251 0.000000 0.000000
											CHANNELS 3 Xrotation Yrotation Zrotation
											End Site
											{
												OFFSET 0 0 0
											}
										}
									}
								}
							}
						}
					}
				}
			}
		}
	}
}
MOTION
Frames: 10
Frame Time: 0.03333333
-7.565610 74.845848 15.560707 0.000000 0.000000 0.000000 -19.996799 -83.232999 -19.986122 -49.823194 16.672821 60.270040 45.160466 -2.663569 1.450273 1.347336 0.263657 -21.143605 0.000000 0.000000 0.000000 -18.648465 -82.309257 -18.674996 -46.038426 16.819872 -26.384852 71.761806 -4.952378 0.663687 -25.093814 5.302655 9.120163 0.000000 0.000000 0.000000 -11.855855 -80.730678 -11.766949 -0.693159 0.067080 0.121231 0.947460 7.267047 -0.583753 7.578139 -3.448265 -1.160188 0.000000 0.000000 0.000000 6.076401 -2.427270 -0.455154 3.363406 3.117476 0.324277 0.000000 0.000000 0.000000 8.545558 -3.516411 0.446931 -3.321622 -9.888246 -15.261190 -39.536140 -12.386636 -20.566792 -5.429498 -39.761765 -1.739952 0.000000 0.000000 0.000000 4.336739 -2.194743 -2.064842 18.352250 21.438137 -5.388360 -47.052695 67.712774 68.381177 36.337518 43.077016 -58.373433 0.000000 0.000000 0.000000 
-7.556657 75.241791 15.159042 0.000000 0.000000 0.000000 -21.873309 -83.364603 -22.102632 -49.077027 17.352823 60.412559 44.185337 -3.028162 1.563154 1.826478 -0.304155 -21.508472 0.000000 0.000000 0.000000 -21.605990 -82.552152 -21.640215 -46.296791 16.637721 -26.015072 71.669428 -5.316856 0.900606 -25.382561 5.028393 8.860267 0.000000 0.000000 0.000000 -14.719346 -81.328913 -14.743515 -0.711995 0.088546 0.097332 0.617898 7.013904 -0.234436 7.346714 -3.732408 -1.272834 0.000000 0.000000 0.000000 5.561106 -2.644090 -0.473506 3.544501 3.087894 0.467607 0.000000 0.000000 0.000000 8.491316 -3.666559 0.337656 -2.943691 -9.497771 -15.645711 -39.756964 -11.251617 -21.298169 -4.854627 -38.228849 -1.491163 0.000000 0.000000 0.000000 4.349707 -2.498166 -2.183779 18.374532 21.712333 -5.521181 -45.011630 67.096923 67.331588 35.799279 42.448779 -57.141373 0.000000 0.000000 0.000000 
-7.582051 75.931671 15.002331 0.000000 0.000000 0.000000 -25.012981 -83.393072 -25.664670 -47.560287 18.362673 60.465301 42.346152 -3.248468 1.864768 4.307605 -0.960278 -21.477890 0.000000 0.000000 0.000000 -25.162618 -82.613208 -25.539075 -46.516375 16.439468 -25.639883 70.374629 -5.352000 1.191954 -23.473817 5.338561 10.977290 0.000000 0.000000 0.000000 -19.679115 -81.858881 -20.061990 -0.702645 0.148977 0.065239 0.424467 6.612140 0.685457 7.166156 -3.961380 -1.396020 0.000000 0.000000 0.000000 4.784890 -2.875442 -0.478583 3.678846 3.125971 0.625479 0.000000 0.000000 0.000000 8.429501 -3.794189 0.390677 -2.821794 -8.935750 -15.849819 -38.223962 -10.310504 -22.509867 -4.567029 -38.071341 -1.372385 0.000000 0.000000 0.000000 4.275551 -2.821017 -2.304006 18.153214 22.299418 -5.145497 -40.065073 65.467322 63.548879 35.668744 41.809698 -55.644434 0.000000 0.000000 0.000000 
-7.625411 76.680054 15.120010 0.000000 0.000000 0.000000 -27.905587 -83.034432 -29.006741 -46.000648 19.384179 60.378572 40.727291 -3.211289 2.302737 7.770819 -1.371564 -20.927242 0.000000 0.000000 0.000000 -28.134412 -82.406683 -28.994057 -46.740170 16.448485 -25.107497 68.664725 -5.115208 1.357760 -19.406898 6.306337 14.534648 0.000000 0.000000 0.000000 -24.577999 -81.938050 -25.467159 -0.660255 0.214261 0.039421 0.436912 6.180266 1.837553 7.065337 -4.077199 -1.452613 0.000000 0.000000 0.000000 4.051465 -3.061944 -0.438521 3.795344 3.191588 0.743071 0.000000 0.000000 0.000000 8.409939 -3.876225 0.591586 -2.945923 -8.506126 -16.256200 -33.763732 -10.287930 -24.074713 -4.470191 -40.341918 -1.504025 0.000000 0.000000 0.000000 4.069171 -3.098624 -2.347175 17.578863 22.942208 -4.149142 -33.955421 62.647643 58.541387 35.667801 41.118309 -53.564259 0.000000 0.000000 0.000000 
-7.743721 77.375320 15.167320 0.000000 0.000000 0.000000 -28.526625 -82.181792 -29.985210 -44.403063 19.920694 59.884612 39.840268 -3.274800 3.044169 10.042546 -1.597536 -20.299698 0.000000 0.000000 0.000000 -28.831485 -81.787376 -30.118085 -46.428959 16.477515 -24.260962 67.055567 -5.313235 1.393996 -16.195116 7.042438 17.230091 0.000000 0.000000 0.000000 -26.567665 -81.389381 -27.987667 -0.610751 0.253406 0.052068 0.477783 5.708754 2.811841 6.987562 -4.104449 -1.350735 0.000000 0.000000 0.000000 3.625829 -3.194293 -0.269795 3.871207 3.263691 0.759529 0.000000 0.000000 0.000000 8.387072 -3.906977 0.889125 -3.227527 -8.181734 -17.096459 -25.431641 -11.780328 -25.517529 -4.578670 -45.333017 -1.858408 0.000000 0.000000 0.000000 3.675405 -3.307155 -2.228161 16.598456 23.364308 -2.476103 -27.874320 58.477238 53.975085 35.377754 40.217738 -50.493065 0.000000 0.000000 0.000000 
-7.937375 77.954285 15.338470 0.000000 0.000000 0.000000 -26.353100 -80.976851 -28.039506 -42.407367 19.843460 58.766217 39.119161 -3.813462 4.175387 10.331218 -2.116620 -20.424525 0.000000 0.000000 0.000000 -26.061849 -80.625643 -27.647265 -45.010089 16.350093 -23.281354 65.586489 -6.459511 1.329037 -15.969862 6.621963 17.967410 0.000000 0.000000 0.000000 -25.009979 -80.283478 -26.829721 -0.596976 0.270380 0.089347 0.479504 5.166768 3.271904 6.889456 -4.147930 -1.035450 0.000000 0.000000 0.000000 3.616128 -3.264432 0.054712 3.870921 3.326243 0.661985 0.000000 0.000000 0.000000 8.300907 -3.962900 1.220318 -3.606464 -8.073746 -18.418609 -14.458740 -15.409018 -25.711093 -4.945027 -52.697693 -2.466125 0.000000 0.000000 0.000000 3.133442 -3.416435 -1.877321 15.302229 23.426832 -0.162488 -22.563086 53.360593 50.953139 34.461450 38.973705 -46.310622 0.000000 0.000000 0.000000 
-8.073088 78.440178 15.670994 0.000000 0.000000 0.000000 -22.415060 -79.507459 -24.154441 -40.147374 19.379432 57.168537 37.930892 -4.823389 5.454510 9.221000 -3.243659 -21.880342 0.000000 0.000000 0.000000 -21.552785 -78.956516 -23.237562 -42.557782 16.270057 -22.453224 63.926220 -8.243395 1.022083 -17.220934 5.432009 17.459080 0.000000 0.000000 0.000000 -21.090902 -78.722472 -23.090151 -0.602636 0.241708 0.131324 0.450479 4.484660 3.138244 6.678452 -4.345821 -0.540041 0.000000 0.000000 0.000000 3.982997 -3.403538 0.516014 3.770596 3.394681 0.427171 0.000000 0.000000 0.000000 8.095116 -4.130957 1.521242 -4.114400 -8.283191 -19.796311 -2.860904 -20.959967 -23.466882 -5.854854 -61.542586 -3.596686 0.000000 0.000000 0.000000 2.533565 -3.528214 -1.308088 13.917929 22.982690 2.516523 -18.055255 48.029187 49.650902 33.008300 37.391037 -41.164713 0.000000 0.000000 0.000000 
-8.121000 78.854538 16.184956 0.000000 0.000000 0.000000 -17.757732 -77.846425 -19.410467 -38.005539 18.326458 55.383490 36.094398 -5.953263 6.698849 8.026901 -4.815747 -24.414779 0.000000 0.000000 0.000000 -16.683266 -76.904529 -18.311997 -39.779548 16.557574 -22.079630 61.870442 -10.072816 0.245735 -17.210159 4.408076 16.633350 0.000000 0.000000 0.000000 -16.510802 -76.845953 -18.422011 -0.610496 0.198132 0.172997 0.414527 3.615234 2.651163 6.359313 -4.771135 0.066138 0.000000 0.000000 0.000000 4.586540 -3.732521 1.034598 3.503197 3.500269 0.077114 0.000000 0.000000 0.000000 7.895770 -4.509203 1.789405 -4.626000 -8.716830 -20.220862 7.329978 -27.746602 -17.801280 -8.645229 -71.367376 -6.216657 0.000000 0.000000 0.000000 1.973201 -3.772296 -0.555276 12.725181 22.017275 4.984834 -14.157589 43.525944 49.251046 31.379631 35.734348 -35.500847 0.000000 0.000000 0.000000 
-8.059118 79.172653 16.744427 0.000000 0.000000 0.000000 -13.208755 -76.115430 -14.677803 -36.278703 16.646479 53.593493 33.881355 -6.763061 7.846434 7.798482 -6.453887 -27.253698 0.000000 0.000000 0.000000 -12.282701 -74.770955 -13.781138 -37.108660 17.030932 -22.439830 59.214899 -11.541475 -0.982839 -14.792892 3.722478 15.886264 0.000000 0.000000 0.000000 -12.489571 -74.904356 -14.052716 -0.601929 0.176338 0.188345 0.390828 2.522177 2.030544 5.956084 -5.486708 0.742996 0.000000 0.000000 0.000000 5.166026 -4.319832 1.551873 3.012834 3.653936 -0.293976 0.000000 0.000000 0.000000 7.788569 -5.173980 2.094930 -5.043147 -9.439586 -18.860019 14.411248 -35.520901 -9.208945 -19.230087 -80.908795 -16.204238 0.000000 0.000000 0.000000 1.624521 -4.270363 0.305032 11.934890 20.499327 6.896874 -11.208001 40.523232 48.811926 29.815463 34.285907 -29.641955 0.000000 0.000000 0.000000 
-7.893548 79.394554 17.188950 0.000000 0.000000 0.000000 -9.168363 -74.524194 -10.391014 -34.788028 14.669633 51.975448 31.326379 -7.053154 8.861474 8.113986 -7.899017 -29.817348 0.000000 0.000000 0.000000 -8.888689 -72.982374 -10.185239 -34.403417 17.166250 -23.448692 55.758215 -12.624772 -2.340573 -11.546997 2.953485 14.971761 0.000000 0.000000 0.000000 -8.963262 -73.138560 -10.101376 -0.608747 0.179528 0.168353 0.360936 1.257692 1.472769 5.565778 -6.539824 1.478713 0.000000 0.000000 0.000000 5.480295 -5.237923 2.064418 2.286046 3.860856 -0.566242 0.000000 0.000000 0.000000 7.801028 -6.140549 2.467963 -5.216248 -10.228797 -15.251561 17.830871 -44.839253 0.441499 -91.528483 -86.683590 -87.377606 0.000000 0.000000 0.000000 1.596654 -5.085719 1.172386 11.606227 18.495075 8.367005 -10.050370 38.921543 48.209213 28.406118 33.167078 -23.772239 0.000000 0.000000 0.000000 
